<svg width="16" height="16" viewBox="0 0 16 16" fill="none" xmlns="http://www.w3.org/2000/svg">
<path fill-rule="evenodd" clip-rule="evenodd" d="M13.7907 11.6127L13.7075 11.7069L11.6656 13.7461L11.5721 13.8202L11.5275 13.8495L11.472 13.8816L11.3734 13.9276L11.2856 13.9583L11.2047 13.9787L11.0853 13.996L11 13.9996L10.9151 13.9961L10.8511 13.9886L10.7686 13.9727L10.6548 13.9384L10.5768 13.906L10.4691 13.8473L10.4283 13.8202L10.3704 13.7742L10.2929 13.7068L8.2927 11.7069C7.90214 11.3164 7.90214 10.6832 8.2927 10.2927C8.65321 9.93227 9.22049 9.90454 9.61281 10.2096L9.70702 10.2927L9.99978 10.5852L10 3.00024C10 2.48741 10.3861 2.06474 10.8834 2.00697L11.0002 2.00024C11.5525 2.00024 12.0002 2.44796 12.0002 3.00024L11.9998 10.5852L12.2932 10.2927C12.6537 9.93227 13.221 9.90454 13.6133 10.2096L13.7075 10.2927C14.038 10.6232 14.0888 11.1273 13.86 11.5112L13.7907 11.6127ZM4.37741 2.21824L4.42865 2.17923L4.50195 2.13259L4.62221 2.07377L4.76897 2.02671L4.8514 2.01082L4.96741 2.00034L5.08567 2.00341L5.20504 2.02073L5.31719 2.05097L5.37379 2.07182L5.47233 2.11782L5.5724 2.17927L5.62211 2.21641L5.70762 2.29269L7.70784 4.29255L7.79103 4.38675C8.07066 4.74634 8.07066 5.25291 7.79103 5.6125L7.70784 5.7067L7.61362 5.78989C7.25399 6.06948 6.74736 6.06948 6.38773 5.78989L6.29351 5.7067L6.00012 5.4142L6.00052 12.9992C6.00052 13.512 5.61448 13.9347 5.11714 13.9925L5.00052 13.9992L4.88374 13.9925C4.42466 13.9392 4.06041 13.5749 4.00709 13.1158L4.00036 12.9992L4.00012 5.4142L3.70736 5.7067L3.61315 5.78989C3.22083 6.0949 2.65355 6.06717 2.29304 5.7067C1.93253 5.34623 1.90479 4.77903 2.20984 4.38675L2.29304 4.29255L4.29325 2.29269L4.37741 2.21824Z" fill="#A094C6"/>
</svg>
